<mxfile host="Electron" modified="2023-10-16T07:07:15.382Z" agent="Mozilla/5.0 (Windows NT 10.0; Win64; x64) AppleWebKit/537.36 (KHTML, like Gecko) draw.io/21.8.2 Chrome/114.0.5735.289 Electron/25.8.1 Safari/537.36" etag="Yoscezm7zV4AiFYSKgX6" version="21.8.2" type="device">
  <diagram id="Fqjd-lwi6O4fydthMyqD" name="Page-1">
    <mxGraphModel dx="1206" dy="817" grid="1" gridSize="10" guides="1" tooltips="1" connect="1" arrows="1" fold="1" page="1" pageScale="1" pageWidth="827" pageHeight="1169" math="0" shadow="0">
      <root>
        <mxCell id="0" />
        <mxCell id="1" parent="0" />
        <mxCell id="GwdTzGD5IiF0ml_I4buS-1" value="Организовать стирку (Мама Енот)" style="swimlane;horizontal=0;whiteSpace=wrap;html=1;" parent="1" vertex="1">
          <mxGeometry x="10" y="40" width="950" height="400" as="geometry" />
        </mxCell>
        <mxCell id="JbVG7jCOPxRfAgAlovIg-11" style="edgeStyle=orthogonalEdgeStyle;rounded=0;orthogonalLoop=1;jettySize=auto;html=1;exitX=1;exitY=0.5;exitDx=0;exitDy=0;entryX=0;entryY=0.5;entryDx=0;entryDy=0;" edge="1" parent="GwdTzGD5IiF0ml_I4buS-1" source="GwdTzGD5IiF0ml_I4buS-3" target="JbVG7jCOPxRfAgAlovIg-2">
          <mxGeometry relative="1" as="geometry" />
        </mxCell>
        <mxCell id="GwdTzGD5IiF0ml_I4buS-3" value="" style="ellipse;whiteSpace=wrap;html=1;aspect=fixed;" parent="GwdTzGD5IiF0ml_I4buS-1" vertex="1">
          <mxGeometry x="55" y="55" width="50" height="50" as="geometry" />
        </mxCell>
        <mxCell id="GwdTzGD5IiF0ml_I4buS-4" value="Корзина грязной &lt;br&gt;одежды &lt;br&gt;наполнилась" style="text;html=1;align=center;verticalAlign=middle;resizable=0;points=[];autosize=1;strokeColor=none;fillColor=none;" parent="GwdTzGD5IiF0ml_I4buS-1" vertex="1">
          <mxGeometry x="20" y="110" width="120" height="60" as="geometry" />
        </mxCell>
        <mxCell id="JbVG7jCOPxRfAgAlovIg-12" value="" style="edgeStyle=orthogonalEdgeStyle;rounded=0;orthogonalLoop=1;jettySize=auto;html=1;" edge="1" parent="GwdTzGD5IiF0ml_I4buS-1" source="JbVG7jCOPxRfAgAlovIg-2" target="JbVG7jCOPxRfAgAlovIg-3">
          <mxGeometry relative="1" as="geometry" />
        </mxCell>
        <mxCell id="JbVG7jCOPxRfAgAlovIg-2" value="Сортировать одежду" style="rounded=1;whiteSpace=wrap;html=1;" vertex="1" parent="GwdTzGD5IiF0ml_I4buS-1">
          <mxGeometry x="150" y="50" width="120" height="60" as="geometry" />
        </mxCell>
        <mxCell id="JbVG7jCOPxRfAgAlovIg-13" value="" style="edgeStyle=orthogonalEdgeStyle;rounded=0;orthogonalLoop=1;jettySize=auto;html=1;" edge="1" parent="GwdTzGD5IiF0ml_I4buS-1" source="JbVG7jCOPxRfAgAlovIg-3" target="JbVG7jCOPxRfAgAlovIg-4">
          <mxGeometry relative="1" as="geometry" />
        </mxCell>
        <mxCell id="JbVG7jCOPxRfAgAlovIg-3" value="&lt;font style=&quot;font-size: 19px;&quot;&gt;Х&lt;/font&gt;" style="rhombus;whiteSpace=wrap;html=1;" vertex="1" parent="GwdTzGD5IiF0ml_I4buS-1">
          <mxGeometry x="309" y="52.5" width="55" height="55" as="geometry" />
        </mxCell>
        <mxCell id="JbVG7jCOPxRfAgAlovIg-14" value="" style="edgeStyle=orthogonalEdgeStyle;rounded=0;orthogonalLoop=1;jettySize=auto;html=1;" edge="1" parent="GwdTzGD5IiF0ml_I4buS-1" source="JbVG7jCOPxRfAgAlovIg-4" target="JbVG7jCOPxRfAgAlovIg-6">
          <mxGeometry relative="1" as="geometry" />
        </mxCell>
        <mxCell id="JbVG7jCOPxRfAgAlovIg-4" value="Стирать одежду" style="rounded=1;whiteSpace=wrap;html=1;" vertex="1" parent="GwdTzGD5IiF0ml_I4buS-1">
          <mxGeometry x="403.5" y="50" width="120" height="60" as="geometry" />
        </mxCell>
        <mxCell id="JbVG7jCOPxRfAgAlovIg-15" value="" style="edgeStyle=orthogonalEdgeStyle;rounded=0;orthogonalLoop=1;jettySize=auto;html=1;" edge="1" parent="GwdTzGD5IiF0ml_I4buS-1" source="JbVG7jCOPxRfAgAlovIg-6" target="JbVG7jCOPxRfAgAlovIg-7">
          <mxGeometry relative="1" as="geometry" />
        </mxCell>
        <mxCell id="JbVG7jCOPxRfAgAlovIg-6" value="Достать бельё" style="rounded=1;whiteSpace=wrap;html=1;" vertex="1" parent="GwdTzGD5IiF0ml_I4buS-1">
          <mxGeometry x="404" y="200" width="120" height="60" as="geometry" />
        </mxCell>
        <mxCell id="JbVG7jCOPxRfAgAlovIg-16" value="" style="edgeStyle=orthogonalEdgeStyle;rounded=0;orthogonalLoop=1;jettySize=auto;html=1;entryX=0;entryY=0.5;entryDx=0;entryDy=0;" edge="1" parent="GwdTzGD5IiF0ml_I4buS-1" source="JbVG7jCOPxRfAgAlovIg-7" target="JbVG7jCOPxRfAgAlovIg-8">
          <mxGeometry relative="1" as="geometry" />
        </mxCell>
        <mxCell id="JbVG7jCOPxRfAgAlovIg-7" value="Повесить бельё" style="rounded=1;whiteSpace=wrap;html=1;" vertex="1" parent="GwdTzGD5IiF0ml_I4buS-1">
          <mxGeometry x="550" y="200" width="120" height="60" as="geometry" />
        </mxCell>
        <mxCell id="JbVG7jCOPxRfAgAlovIg-17" style="edgeStyle=orthogonalEdgeStyle;rounded=0;orthogonalLoop=1;jettySize=auto;html=1;exitX=1;exitY=0.5;exitDx=0;exitDy=0;entryX=0;entryY=0.5;entryDx=0;entryDy=0;" edge="1" parent="GwdTzGD5IiF0ml_I4buS-1" source="JbVG7jCOPxRfAgAlovIg-8" target="JbVG7jCOPxRfAgAlovIg-9">
          <mxGeometry relative="1" as="geometry" />
        </mxCell>
        <mxCell id="JbVG7jCOPxRfAgAlovIg-92" value="Да" style="edgeLabel;html=1;align=center;verticalAlign=middle;resizable=0;points=[];" vertex="1" connectable="0" parent="JbVG7jCOPxRfAgAlovIg-17">
          <mxGeometry x="0.0519" relative="1" as="geometry">
            <mxPoint as="offset" />
          </mxGeometry>
        </mxCell>
        <mxCell id="JbVG7jCOPxRfAgAlovIg-18" style="edgeStyle=orthogonalEdgeStyle;rounded=0;orthogonalLoop=1;jettySize=auto;html=1;exitX=0.5;exitY=1;exitDx=0;exitDy=0;entryX=0.5;entryY=1;entryDx=0;entryDy=0;" edge="1" parent="GwdTzGD5IiF0ml_I4buS-1" source="JbVG7jCOPxRfAgAlovIg-8" target="JbVG7jCOPxRfAgAlovIg-3">
          <mxGeometry relative="1" as="geometry">
            <Array as="points">
              <mxPoint x="728" y="360" />
              <mxPoint x="337" y="360" />
            </Array>
          </mxGeometry>
        </mxCell>
        <mxCell id="JbVG7jCOPxRfAgAlovIg-93" value="Нет" style="edgeLabel;html=1;align=center;verticalAlign=middle;resizable=0;points=[];" vertex="1" connectable="0" parent="JbVG7jCOPxRfAgAlovIg-18">
          <mxGeometry x="-0.8485" y="-1" relative="1" as="geometry">
            <mxPoint as="offset" />
          </mxGeometry>
        </mxCell>
        <mxCell id="JbVG7jCOPxRfAgAlovIg-8" value="&lt;font style=&quot;font-size: 18px;&quot;&gt;Х&lt;/font&gt;" style="rhombus;whiteSpace=wrap;html=1;" vertex="1" parent="GwdTzGD5IiF0ml_I4buS-1">
          <mxGeometry x="700" y="202.5" width="55" height="55" as="geometry" />
        </mxCell>
        <mxCell id="JbVG7jCOPxRfAgAlovIg-9" value="" style="ellipse;whiteSpace=wrap;html=1;aspect=fixed;" vertex="1" parent="GwdTzGD5IiF0ml_I4buS-1">
          <mxGeometry x="800" y="205" width="50" height="50" as="geometry" />
        </mxCell>
        <mxCell id="JbVG7jCOPxRfAgAlovIg-10" value="Одежда постирана" style="text;html=1;align=center;verticalAlign=middle;resizable=0;points=[];autosize=1;strokeColor=none;fillColor=none;" vertex="1" parent="GwdTzGD5IiF0ml_I4buS-1">
          <mxGeometry x="760" y="277.5" width="130" height="30" as="geometry" />
        </mxCell>
        <mxCell id="GwdTzGD5IiF0ml_I4buS-18" value="Сортировать одежду (Мама Енот)" style="swimlane;horizontal=0;whiteSpace=wrap;html=1;" parent="1" vertex="1">
          <mxGeometry x="10" y="460" width="955" height="380" as="geometry" />
        </mxCell>
        <mxCell id="JbVG7jCOPxRfAgAlovIg-49" value="" style="edgeStyle=orthogonalEdgeStyle;rounded=0;orthogonalLoop=1;jettySize=auto;html=1;" edge="1" parent="GwdTzGD5IiF0ml_I4buS-18" source="JbVG7jCOPxRfAgAlovIg-19" target="JbVG7jCOPxRfAgAlovIg-35">
          <mxGeometry relative="1" as="geometry" />
        </mxCell>
        <mxCell id="JbVG7jCOPxRfAgAlovIg-19" value="" style="ellipse;whiteSpace=wrap;html=1;aspect=fixed;" vertex="1" parent="GwdTzGD5IiF0ml_I4buS-18">
          <mxGeometry x="65" y="172.5" width="50" height="50" as="geometry" />
        </mxCell>
        <mxCell id="JbVG7jCOPxRfAgAlovIg-20" value="Корзина полная" style="text;html=1;align=center;verticalAlign=middle;resizable=0;points=[];autosize=1;strokeColor=none;fillColor=none;" vertex="1" parent="GwdTzGD5IiF0ml_I4buS-18">
          <mxGeometry x="35" y="240" width="110" height="30" as="geometry" />
        </mxCell>
        <mxCell id="JbVG7jCOPxRfAgAlovIg-33" value="" style="ellipse;whiteSpace=wrap;html=1;aspect=fixed;" vertex="1" parent="GwdTzGD5IiF0ml_I4buS-18">
          <mxGeometry x="865" y="172.5" width="50" height="50" as="geometry" />
        </mxCell>
        <mxCell id="JbVG7jCOPxRfAgAlovIg-34" value="Одежда&lt;br style=&quot;border-color: var(--border-color);&quot;&gt;отсортирована" style="text;html=1;align=center;verticalAlign=middle;resizable=0;points=[];autosize=1;strokeColor=none;fillColor=none;" vertex="1" parent="GwdTzGD5IiF0ml_I4buS-18">
          <mxGeometry x="835" y="235" width="110" height="40" as="geometry" />
        </mxCell>
        <mxCell id="JbVG7jCOPxRfAgAlovIg-50" style="edgeStyle=orthogonalEdgeStyle;rounded=0;orthogonalLoop=1;jettySize=auto;html=1;exitX=1;exitY=0.5;exitDx=0;exitDy=0;entryX=0;entryY=0.5;entryDx=0;entryDy=0;" edge="1" parent="GwdTzGD5IiF0ml_I4buS-18" source="JbVG7jCOPxRfAgAlovIg-35" target="JbVG7jCOPxRfAgAlovIg-36">
          <mxGeometry relative="1" as="geometry" />
        </mxCell>
        <mxCell id="JbVG7jCOPxRfAgAlovIg-35" value="&lt;font style=&quot;font-size: 19px;&quot;&gt;Х&lt;/font&gt;" style="rhombus;whiteSpace=wrap;html=1;" vertex="1" parent="GwdTzGD5IiF0ml_I4buS-18">
          <mxGeometry x="150" y="170" width="55" height="55" as="geometry" />
        </mxCell>
        <mxCell id="JbVG7jCOPxRfAgAlovIg-51" style="edgeStyle=orthogonalEdgeStyle;rounded=0;orthogonalLoop=1;jettySize=auto;html=1;exitX=1;exitY=0.5;exitDx=0;exitDy=0;entryX=0;entryY=0.5;entryDx=0;entryDy=0;" edge="1" parent="GwdTzGD5IiF0ml_I4buS-18" source="JbVG7jCOPxRfAgAlovIg-36" target="JbVG7jCOPxRfAgAlovIg-37">
          <mxGeometry relative="1" as="geometry" />
        </mxCell>
        <mxCell id="JbVG7jCOPxRfAgAlovIg-36" value="Достать одежду" style="rounded=1;whiteSpace=wrap;html=1;" vertex="1" parent="GwdTzGD5IiF0ml_I4buS-18">
          <mxGeometry x="240" y="175" width="80" height="45" as="geometry" />
        </mxCell>
        <mxCell id="JbVG7jCOPxRfAgAlovIg-52" style="edgeStyle=orthogonalEdgeStyle;rounded=0;orthogonalLoop=1;jettySize=auto;html=1;exitX=0.5;exitY=0;exitDx=0;exitDy=0;entryX=0;entryY=0.5;entryDx=0;entryDy=0;" edge="1" parent="GwdTzGD5IiF0ml_I4buS-18" source="JbVG7jCOPxRfAgAlovIg-37" target="JbVG7jCOPxRfAgAlovIg-38">
          <mxGeometry relative="1" as="geometry" />
        </mxCell>
        <mxCell id="JbVG7jCOPxRfAgAlovIg-53" style="edgeStyle=orthogonalEdgeStyle;rounded=0;orthogonalLoop=1;jettySize=auto;html=1;exitX=0.5;exitY=0;exitDx=0;exitDy=0;entryX=0;entryY=0.5;entryDx=0;entryDy=0;" edge="1" parent="GwdTzGD5IiF0ml_I4buS-18" source="JbVG7jCOPxRfAgAlovIg-37" target="JbVG7jCOPxRfAgAlovIg-39">
          <mxGeometry relative="1" as="geometry">
            <Array as="points">
              <mxPoint x="388" y="160" />
            </Array>
          </mxGeometry>
        </mxCell>
        <mxCell id="JbVG7jCOPxRfAgAlovIg-54" style="edgeStyle=orthogonalEdgeStyle;rounded=0;orthogonalLoop=1;jettySize=auto;html=1;exitX=0.5;exitY=1;exitDx=0;exitDy=0;entryX=0;entryY=0.5;entryDx=0;entryDy=0;" edge="1" parent="GwdTzGD5IiF0ml_I4buS-18" source="JbVG7jCOPxRfAgAlovIg-37" target="JbVG7jCOPxRfAgAlovIg-41">
          <mxGeometry relative="1" as="geometry">
            <Array as="points">
              <mxPoint x="388" y="240" />
            </Array>
          </mxGeometry>
        </mxCell>
        <mxCell id="JbVG7jCOPxRfAgAlovIg-55" style="edgeStyle=orthogonalEdgeStyle;rounded=0;orthogonalLoop=1;jettySize=auto;html=1;exitX=0.5;exitY=1;exitDx=0;exitDy=0;entryX=0;entryY=0.5;entryDx=0;entryDy=0;" edge="1" parent="GwdTzGD5IiF0ml_I4buS-18" source="JbVG7jCOPxRfAgAlovIg-37" target="JbVG7jCOPxRfAgAlovIg-42">
          <mxGeometry relative="1" as="geometry" />
        </mxCell>
        <mxCell id="JbVG7jCOPxRfAgAlovIg-37" value="&lt;font style=&quot;font-size: 26px;&quot;&gt;+&lt;/font&gt;" style="rhombus;whiteSpace=wrap;html=1;" vertex="1" parent="GwdTzGD5IiF0ml_I4buS-18">
          <mxGeometry x="360" y="170" width="55" height="55" as="geometry" />
        </mxCell>
        <mxCell id="JbVG7jCOPxRfAgAlovIg-59" value="" style="edgeStyle=orthogonalEdgeStyle;rounded=0;orthogonalLoop=1;jettySize=auto;html=1;" edge="1" parent="GwdTzGD5IiF0ml_I4buS-18" source="JbVG7jCOPxRfAgAlovIg-38" target="JbVG7jCOPxRfAgAlovIg-43">
          <mxGeometry relative="1" as="geometry" />
        </mxCell>
        <mxCell id="JbVG7jCOPxRfAgAlovIg-38" value="Белая слабозагрязнённая" style="ellipse;shape=doubleEllipse;whiteSpace=wrap;html=1;aspect=fixed;" vertex="1" parent="GwdTzGD5IiF0ml_I4buS-18">
          <mxGeometry x="470" y="60" width="40" height="40" as="geometry" />
        </mxCell>
        <mxCell id="JbVG7jCOPxRfAgAlovIg-58" value="" style="edgeStyle=orthogonalEdgeStyle;rounded=0;orthogonalLoop=1;jettySize=auto;html=1;" edge="1" parent="GwdTzGD5IiF0ml_I4buS-18" source="JbVG7jCOPxRfAgAlovIg-39" target="JbVG7jCOPxRfAgAlovIg-44">
          <mxGeometry relative="1" as="geometry" />
        </mxCell>
        <mxCell id="JbVG7jCOPxRfAgAlovIg-39" value="Белая сильнозагрязнённая" style="ellipse;shape=doubleEllipse;whiteSpace=wrap;html=1;aspect=fixed;" vertex="1" parent="GwdTzGD5IiF0ml_I4buS-18">
          <mxGeometry x="470" y="140" width="40" height="40" as="geometry" />
        </mxCell>
        <mxCell id="JbVG7jCOPxRfAgAlovIg-57" value="" style="edgeStyle=orthogonalEdgeStyle;rounded=0;orthogonalLoop=1;jettySize=auto;html=1;" edge="1" parent="GwdTzGD5IiF0ml_I4buS-18" source="JbVG7jCOPxRfAgAlovIg-41" target="JbVG7jCOPxRfAgAlovIg-45">
          <mxGeometry relative="1" as="geometry" />
        </mxCell>
        <mxCell id="JbVG7jCOPxRfAgAlovIg-41" value="Цветная&lt;br&gt;слабозагрязнённая" style="ellipse;shape=doubleEllipse;whiteSpace=wrap;html=1;aspect=fixed;" vertex="1" parent="GwdTzGD5IiF0ml_I4buS-18">
          <mxGeometry x="470" y="220" width="40" height="40" as="geometry" />
        </mxCell>
        <mxCell id="JbVG7jCOPxRfAgAlovIg-56" value="" style="edgeStyle=orthogonalEdgeStyle;rounded=0;orthogonalLoop=1;jettySize=auto;html=1;" edge="1" parent="GwdTzGD5IiF0ml_I4buS-18" source="JbVG7jCOPxRfAgAlovIg-42" target="JbVG7jCOPxRfAgAlovIg-46">
          <mxGeometry relative="1" as="geometry" />
        </mxCell>
        <mxCell id="JbVG7jCOPxRfAgAlovIg-42" value="Цветная&lt;br&gt;сильнозагрязнённая" style="ellipse;shape=doubleEllipse;whiteSpace=wrap;html=1;aspect=fixed;" vertex="1" parent="GwdTzGD5IiF0ml_I4buS-18">
          <mxGeometry x="470" y="300" width="40" height="40" as="geometry" />
        </mxCell>
        <mxCell id="JbVG7jCOPxRfAgAlovIg-60" style="edgeStyle=orthogonalEdgeStyle;rounded=0;orthogonalLoop=1;jettySize=auto;html=1;exitX=1;exitY=0.5;exitDx=0;exitDy=0;entryX=0.5;entryY=0;entryDx=0;entryDy=0;" edge="1" parent="GwdTzGD5IiF0ml_I4buS-18" source="JbVG7jCOPxRfAgAlovIg-43" target="JbVG7jCOPxRfAgAlovIg-47">
          <mxGeometry relative="1" as="geometry" />
        </mxCell>
        <mxCell id="JbVG7jCOPxRfAgAlovIg-43" value="Положить в отдельный таз" style="rounded=1;whiteSpace=wrap;html=1;" vertex="1" parent="GwdTzGD5IiF0ml_I4buS-18">
          <mxGeometry x="550" y="60" width="80" height="40" as="geometry" />
        </mxCell>
        <mxCell id="JbVG7jCOPxRfAgAlovIg-61" style="edgeStyle=orthogonalEdgeStyle;rounded=0;orthogonalLoop=1;jettySize=auto;html=1;exitX=1;exitY=0.5;exitDx=0;exitDy=0;entryX=0.5;entryY=0;entryDx=0;entryDy=0;" edge="1" parent="GwdTzGD5IiF0ml_I4buS-18" source="JbVG7jCOPxRfAgAlovIg-44" target="JbVG7jCOPxRfAgAlovIg-47">
          <mxGeometry relative="1" as="geometry">
            <Array as="points">
              <mxPoint x="708" y="160" />
            </Array>
          </mxGeometry>
        </mxCell>
        <mxCell id="JbVG7jCOPxRfAgAlovIg-44" value="Положить в отдельный таз" style="rounded=1;whiteSpace=wrap;html=1;" vertex="1" parent="GwdTzGD5IiF0ml_I4buS-18">
          <mxGeometry x="550" y="140" width="80" height="40" as="geometry" />
        </mxCell>
        <mxCell id="JbVG7jCOPxRfAgAlovIg-62" style="edgeStyle=orthogonalEdgeStyle;rounded=0;orthogonalLoop=1;jettySize=auto;html=1;exitX=1;exitY=0.5;exitDx=0;exitDy=0;entryX=0.5;entryY=1;entryDx=0;entryDy=0;" edge="1" parent="GwdTzGD5IiF0ml_I4buS-18" source="JbVG7jCOPxRfAgAlovIg-45" target="JbVG7jCOPxRfAgAlovIg-47">
          <mxGeometry relative="1" as="geometry">
            <Array as="points">
              <mxPoint x="708" y="240" />
            </Array>
          </mxGeometry>
        </mxCell>
        <mxCell id="JbVG7jCOPxRfAgAlovIg-45" value="Положить в отдельный таз" style="rounded=1;whiteSpace=wrap;html=1;" vertex="1" parent="GwdTzGD5IiF0ml_I4buS-18">
          <mxGeometry x="550" y="220" width="80" height="40" as="geometry" />
        </mxCell>
        <mxCell id="JbVG7jCOPxRfAgAlovIg-63" style="edgeStyle=orthogonalEdgeStyle;rounded=0;orthogonalLoop=1;jettySize=auto;html=1;exitX=1;exitY=0.5;exitDx=0;exitDy=0;entryX=0.5;entryY=1;entryDx=0;entryDy=0;" edge="1" parent="GwdTzGD5IiF0ml_I4buS-18" source="JbVG7jCOPxRfAgAlovIg-46" target="JbVG7jCOPxRfAgAlovIg-47">
          <mxGeometry relative="1" as="geometry">
            <mxPoint x="710" y="240" as="targetPoint" />
          </mxGeometry>
        </mxCell>
        <mxCell id="JbVG7jCOPxRfAgAlovIg-46" value="Положить в отдельный таз" style="rounded=1;whiteSpace=wrap;html=1;" vertex="1" parent="GwdTzGD5IiF0ml_I4buS-18">
          <mxGeometry x="550" y="300" width="80" height="40" as="geometry" />
        </mxCell>
        <mxCell id="JbVG7jCOPxRfAgAlovIg-64" style="edgeStyle=orthogonalEdgeStyle;rounded=0;orthogonalLoop=1;jettySize=auto;html=1;exitX=1;exitY=0.5;exitDx=0;exitDy=0;entryX=0;entryY=0.5;entryDx=0;entryDy=0;" edge="1" parent="GwdTzGD5IiF0ml_I4buS-18" source="JbVG7jCOPxRfAgAlovIg-47" target="JbVG7jCOPxRfAgAlovIg-48">
          <mxGeometry relative="1" as="geometry" />
        </mxCell>
        <mxCell id="JbVG7jCOPxRfAgAlovIg-47" value="&lt;font style=&quot;font-size: 26px;&quot;&gt;+&lt;/font&gt;" style="rhombus;whiteSpace=wrap;html=1;" vertex="1" parent="GwdTzGD5IiF0ml_I4buS-18">
          <mxGeometry x="680" y="170" width="55" height="55" as="geometry" />
        </mxCell>
        <mxCell id="JbVG7jCOPxRfAgAlovIg-65" style="edgeStyle=orthogonalEdgeStyle;rounded=0;orthogonalLoop=1;jettySize=auto;html=1;exitX=1;exitY=0.5;exitDx=0;exitDy=0;entryX=0;entryY=0.5;entryDx=0;entryDy=0;" edge="1" parent="GwdTzGD5IiF0ml_I4buS-18" source="JbVG7jCOPxRfAgAlovIg-48" target="JbVG7jCOPxRfAgAlovIg-33">
          <mxGeometry relative="1" as="geometry" />
        </mxCell>
        <mxCell id="JbVG7jCOPxRfAgAlovIg-67" value="Да" style="edgeLabel;html=1;align=center;verticalAlign=middle;resizable=0;points=[];" vertex="1" connectable="0" parent="JbVG7jCOPxRfAgAlovIg-65">
          <mxGeometry x="-0.2639" y="2" relative="1" as="geometry">
            <mxPoint y="1" as="offset" />
          </mxGeometry>
        </mxCell>
        <mxCell id="JbVG7jCOPxRfAgAlovIg-66" style="edgeStyle=orthogonalEdgeStyle;rounded=0;orthogonalLoop=1;jettySize=auto;html=1;exitX=0.5;exitY=1;exitDx=0;exitDy=0;entryX=0.5;entryY=1;entryDx=0;entryDy=0;" edge="1" parent="GwdTzGD5IiF0ml_I4buS-18" source="JbVG7jCOPxRfAgAlovIg-48" target="JbVG7jCOPxRfAgAlovIg-35">
          <mxGeometry relative="1" as="geometry">
            <Array as="points">
              <mxPoint x="790" y="360" />
              <mxPoint x="178" y="360" />
            </Array>
          </mxGeometry>
        </mxCell>
        <mxCell id="JbVG7jCOPxRfAgAlovIg-68" value="Нет" style="edgeLabel;html=1;align=center;verticalAlign=middle;resizable=0;points=[];" vertex="1" connectable="0" parent="JbVG7jCOPxRfAgAlovIg-66">
          <mxGeometry x="-0.8866" relative="1" as="geometry">
            <mxPoint as="offset" />
          </mxGeometry>
        </mxCell>
        <mxCell id="JbVG7jCOPxRfAgAlovIg-48" value="&lt;font style=&quot;font-size: 19px;&quot;&gt;Х&lt;/font&gt;" style="rhombus;whiteSpace=wrap;html=1;" vertex="1" parent="GwdTzGD5IiF0ml_I4buS-18">
          <mxGeometry x="762" y="170" width="55" height="55" as="geometry" />
        </mxCell>
        <mxCell id="JbVG7jCOPxRfAgAlovIg-94" value="Одежда &lt;br&gt;постирана" style="text;html=1;align=center;verticalAlign=middle;resizable=0;points=[];autosize=1;strokeColor=none;fillColor=none;" vertex="1" parent="GwdTzGD5IiF0ml_I4buS-18">
          <mxGeometry x="749.5" y="120" width="80" height="40" as="geometry" />
        </mxCell>
        <mxCell id="JbVG7jCOPxRfAgAlovIg-1" value="Стирать одежду (Мама Енот)" style="swimlane;horizontal=0;whiteSpace=wrap;html=1;" vertex="1" parent="1">
          <mxGeometry x="10" y="880" width="960" height="210" as="geometry" />
        </mxCell>
        <mxCell id="JbVG7jCOPxRfAgAlovIg-69" value="" style="edgeStyle=orthogonalEdgeStyle;rounded=0;orthogonalLoop=1;jettySize=auto;html=1;" edge="1" parent="JbVG7jCOPxRfAgAlovIg-1" source="JbVG7jCOPxRfAgAlovIg-21" target="JbVG7jCOPxRfAgAlovIg-23">
          <mxGeometry relative="1" as="geometry" />
        </mxCell>
        <mxCell id="JbVG7jCOPxRfAgAlovIg-21" value="" style="ellipse;whiteSpace=wrap;html=1;aspect=fixed;" vertex="1" parent="JbVG7jCOPxRfAgAlovIg-1">
          <mxGeometry x="65" y="80" width="50" height="50" as="geometry" />
        </mxCell>
        <mxCell id="JbVG7jCOPxRfAgAlovIg-22" value="Одежда отсортирована" style="text;html=1;align=center;verticalAlign=middle;resizable=0;points=[];autosize=1;strokeColor=none;fillColor=none;" vertex="1" parent="JbVG7jCOPxRfAgAlovIg-1">
          <mxGeometry x="15" y="140" width="150" height="30" as="geometry" />
        </mxCell>
        <mxCell id="JbVG7jCOPxRfAgAlovIg-70" value="" style="edgeStyle=orthogonalEdgeStyle;rounded=0;orthogonalLoop=1;jettySize=auto;html=1;" edge="1" parent="JbVG7jCOPxRfAgAlovIg-1" source="JbVG7jCOPxRfAgAlovIg-23" target="JbVG7jCOPxRfAgAlovIg-26">
          <mxGeometry relative="1" as="geometry" />
        </mxCell>
        <mxCell id="JbVG7jCOPxRfAgAlovIg-23" value="Достать одежду из 1-го таза" style="rounded=1;whiteSpace=wrap;html=1;" vertex="1" parent="JbVG7jCOPxRfAgAlovIg-1">
          <mxGeometry x="150" y="82.5" width="80" height="45" as="geometry" />
        </mxCell>
        <mxCell id="JbVG7jCOPxRfAgAlovIg-71" value="" style="edgeStyle=orthogonalEdgeStyle;rounded=0;orthogonalLoop=1;jettySize=auto;html=1;" edge="1" parent="JbVG7jCOPxRfAgAlovIg-1" source="JbVG7jCOPxRfAgAlovIg-26" target="JbVG7jCOPxRfAgAlovIg-27">
          <mxGeometry relative="1" as="geometry" />
        </mxCell>
        <mxCell id="JbVG7jCOPxRfAgAlovIg-26" value="Положить одежду в барабан" style="rounded=1;whiteSpace=wrap;html=1;" vertex="1" parent="JbVG7jCOPxRfAgAlovIg-1">
          <mxGeometry x="270" y="82" width="80" height="45" as="geometry" />
        </mxCell>
        <mxCell id="JbVG7jCOPxRfAgAlovIg-72" value="" style="edgeStyle=orthogonalEdgeStyle;rounded=0;orthogonalLoop=1;jettySize=auto;html=1;" edge="1" parent="JbVG7jCOPxRfAgAlovIg-1" source="JbVG7jCOPxRfAgAlovIg-27" target="JbVG7jCOPxRfAgAlovIg-28">
          <mxGeometry relative="1" as="geometry" />
        </mxCell>
        <mxCell id="JbVG7jCOPxRfAgAlovIg-27" value="Выбрать программу" style="rounded=1;whiteSpace=wrap;html=1;" vertex="1" parent="JbVG7jCOPxRfAgAlovIg-1">
          <mxGeometry x="390" y="82.5" width="80" height="45" as="geometry" />
        </mxCell>
        <mxCell id="JbVG7jCOPxRfAgAlovIg-73" value="" style="edgeStyle=orthogonalEdgeStyle;rounded=0;orthogonalLoop=1;jettySize=auto;html=1;" edge="1" parent="JbVG7jCOPxRfAgAlovIg-1" source="JbVG7jCOPxRfAgAlovIg-28" target="JbVG7jCOPxRfAgAlovIg-29">
          <mxGeometry relative="1" as="geometry" />
        </mxCell>
        <mxCell id="JbVG7jCOPxRfAgAlovIg-28" value="Насыпать порошок" style="rounded=1;whiteSpace=wrap;html=1;" vertex="1" parent="JbVG7jCOPxRfAgAlovIg-1">
          <mxGeometry x="510" y="82" width="80" height="45" as="geometry" />
        </mxCell>
        <mxCell id="JbVG7jCOPxRfAgAlovIg-74" value="" style="edgeStyle=orthogonalEdgeStyle;rounded=0;orthogonalLoop=1;jettySize=auto;html=1;" edge="1" parent="JbVG7jCOPxRfAgAlovIg-1" source="JbVG7jCOPxRfAgAlovIg-29" target="JbVG7jCOPxRfAgAlovIg-30">
          <mxGeometry relative="1" as="geometry" />
        </mxCell>
        <mxCell id="JbVG7jCOPxRfAgAlovIg-29" value="Налить кондиционер" style="rounded=1;whiteSpace=wrap;html=1;" vertex="1" parent="JbVG7jCOPxRfAgAlovIg-1">
          <mxGeometry x="630" y="82" width="80" height="45" as="geometry" />
        </mxCell>
        <mxCell id="JbVG7jCOPxRfAgAlovIg-75" value="" style="edgeStyle=orthogonalEdgeStyle;rounded=0;orthogonalLoop=1;jettySize=auto;html=1;entryX=0;entryY=0.5;entryDx=0;entryDy=0;" edge="1" parent="JbVG7jCOPxRfAgAlovIg-1" source="JbVG7jCOPxRfAgAlovIg-30" target="JbVG7jCOPxRfAgAlovIg-31">
          <mxGeometry relative="1" as="geometry" />
        </mxCell>
        <mxCell id="JbVG7jCOPxRfAgAlovIg-30" value="Запустить программу" style="rounded=1;whiteSpace=wrap;html=1;" vertex="1" parent="JbVG7jCOPxRfAgAlovIg-1">
          <mxGeometry x="750" y="82" width="80" height="45" as="geometry" />
        </mxCell>
        <mxCell id="JbVG7jCOPxRfAgAlovIg-31" value="" style="ellipse;whiteSpace=wrap;html=1;aspect=fixed;" vertex="1" parent="JbVG7jCOPxRfAgAlovIg-1">
          <mxGeometry x="880" y="80" width="50" height="50" as="geometry" />
        </mxCell>
        <mxCell id="JbVG7jCOPxRfAgAlovIg-32" value="Одежда &lt;br&gt;стирается" style="text;html=1;align=center;verticalAlign=middle;resizable=0;points=[];autosize=1;strokeColor=none;fillColor=none;" vertex="1" parent="JbVG7jCOPxRfAgAlovIg-1">
          <mxGeometry x="865" y="140" width="80" height="40" as="geometry" />
        </mxCell>
        <mxCell id="JbVG7jCOPxRfAgAlovIg-76" value="Достать одежду из стирки (Крошка Енот)" style="swimlane;horizontal=0;whiteSpace=wrap;html=1;" vertex="1" parent="1">
          <mxGeometry x="10" y="1140" width="960" height="260" as="geometry" />
        </mxCell>
        <mxCell id="JbVG7jCOPxRfAgAlovIg-81" value="" style="edgeStyle=orthogonalEdgeStyle;rounded=0;orthogonalLoop=1;jettySize=auto;html=1;" edge="1" parent="JbVG7jCOPxRfAgAlovIg-76" source="JbVG7jCOPxRfAgAlovIg-78" target="JbVG7jCOPxRfAgAlovIg-80">
          <mxGeometry relative="1" as="geometry" />
        </mxCell>
        <mxCell id="JbVG7jCOPxRfAgAlovIg-78" value="" style="ellipse;whiteSpace=wrap;html=1;aspect=fixed;" vertex="1" parent="JbVG7jCOPxRfAgAlovIg-76">
          <mxGeometry x="60" y="90" width="50" height="50" as="geometry" />
        </mxCell>
        <mxCell id="JbVG7jCOPxRfAgAlovIg-79" value="Одежда постирана" style="text;html=1;align=center;verticalAlign=middle;resizable=0;points=[];autosize=1;strokeColor=none;fillColor=none;" vertex="1" parent="JbVG7jCOPxRfAgAlovIg-76">
          <mxGeometry x="20" y="160" width="130" height="30" as="geometry" />
        </mxCell>
        <mxCell id="JbVG7jCOPxRfAgAlovIg-83" value="" style="edgeStyle=orthogonalEdgeStyle;rounded=0;orthogonalLoop=1;jettySize=auto;html=1;" edge="1" parent="JbVG7jCOPxRfAgAlovIg-76" source="JbVG7jCOPxRfAgAlovIg-80" target="JbVG7jCOPxRfAgAlovIg-82">
          <mxGeometry relative="1" as="geometry" />
        </mxCell>
        <mxCell id="JbVG7jCOPxRfAgAlovIg-80" value="Достать одежду" style="rounded=1;whiteSpace=wrap;html=1;" vertex="1" parent="JbVG7jCOPxRfAgAlovIg-76">
          <mxGeometry x="155" y="85" width="120" height="60" as="geometry" />
        </mxCell>
        <mxCell id="JbVG7jCOPxRfAgAlovIg-85" value="" style="edgeStyle=orthogonalEdgeStyle;rounded=0;orthogonalLoop=1;jettySize=auto;html=1;" edge="1" parent="JbVG7jCOPxRfAgAlovIg-76" source="JbVG7jCOPxRfAgAlovIg-82" target="JbVG7jCOPxRfAgAlovIg-84">
          <mxGeometry relative="1" as="geometry" />
        </mxCell>
        <mxCell id="JbVG7jCOPxRfAgAlovIg-82" value="Отжать одежду" style="whiteSpace=wrap;html=1;rounded=1;" vertex="1" parent="JbVG7jCOPxRfAgAlovIg-76">
          <mxGeometry x="355" y="85" width="120" height="60" as="geometry" />
        </mxCell>
        <mxCell id="JbVG7jCOPxRfAgAlovIg-91" value="" style="edgeStyle=orthogonalEdgeStyle;rounded=0;orthogonalLoop=1;jettySize=auto;html=1;" edge="1" parent="JbVG7jCOPxRfAgAlovIg-76" source="JbVG7jCOPxRfAgAlovIg-84" target="JbVG7jCOPxRfAgAlovIg-89">
          <mxGeometry relative="1" as="geometry" />
        </mxCell>
        <mxCell id="JbVG7jCOPxRfAgAlovIg-84" value="Повесить одежду сушиться" style="whiteSpace=wrap;html=1;rounded=1;" vertex="1" parent="JbVG7jCOPxRfAgAlovIg-76">
          <mxGeometry x="555" y="85" width="120" height="60" as="geometry" />
        </mxCell>
        <mxCell id="JbVG7jCOPxRfAgAlovIg-89" value="" style="ellipse;whiteSpace=wrap;html=1;aspect=fixed;" vertex="1" parent="JbVG7jCOPxRfAgAlovIg-76">
          <mxGeometry x="735" y="90" width="50" height="50" as="geometry" />
        </mxCell>
        <mxCell id="JbVG7jCOPxRfAgAlovIg-90" value="Одежда постирана &lt;br&gt;и повешена на сушку" style="text;html=1;align=center;verticalAlign=middle;resizable=0;points=[];autosize=1;strokeColor=none;fillColor=none;" vertex="1" parent="JbVG7jCOPxRfAgAlovIg-76">
          <mxGeometry x="690" y="155" width="140" height="40" as="geometry" />
        </mxCell>
      </root>
    </mxGraphModel>
  </diagram>
</mxfile>
